<mxfile host="Electron" modified="2024-01-24T17:47:03.843Z" agent="Mozilla/5.0 (Macintosh; Intel Mac OS X 10_15_7) AppleWebKit/537.36 (KHTML, like Gecko) draw.io/22.1.16 Chrome/120.0.6099.109 Electron/28.1.0 Safari/537.36" etag="ib-3QZTPkQf2CQy_ZBrj" version="22.1.16" type="device">
  <diagram name="Page-1" id="8fHASFC6KbXEOGEJDrG9">
    <mxGraphModel dx="513" dy="589" grid="1" gridSize="10" guides="1" tooltips="1" connect="1" arrows="1" fold="1" page="1" pageScale="1" pageWidth="850" pageHeight="1100" math="0" shadow="0">
      <root>
        <mxCell id="0" />
        <mxCell id="1" parent="0" />
        <mxCell id="1Tv3MUX7JbMBVBFQ-Npo-11" value="" style="rounded=0;whiteSpace=wrap;html=1;" vertex="1" parent="1">
          <mxGeometry x="200" y="240" width="320" height="280" as="geometry" />
        </mxCell>
        <mxCell id="1Tv3MUX7JbMBVBFQ-Npo-9" value="op-geth" style="whiteSpace=wrap;html=1;aspect=fixed;fillColor=#f8cecc;strokeColor=#b85450;" vertex="1" parent="1">
          <mxGeometry x="230" y="400" width="80" height="80" as="geometry" />
        </mxCell>
        <mxCell id="1Tv3MUX7JbMBVBFQ-Npo-10" value="op-node" style="whiteSpace=wrap;html=1;aspect=fixed;fillColor=#f8cecc;strokeColor=#b85450;" vertex="1" parent="1">
          <mxGeometry x="230" y="260" width="80" height="80" as="geometry" />
        </mxCell>
        <mxCell id="1Tv3MUX7JbMBVBFQ-Npo-12" value="" style="endArrow=classic;startArrow=classic;html=1;rounded=0;entryX=0.5;entryY=1;entryDx=0;entryDy=0;exitX=0.5;exitY=0;exitDx=0;exitDy=0;" edge="1" parent="1" source="1Tv3MUX7JbMBVBFQ-Npo-9" target="1Tv3MUX7JbMBVBFQ-Npo-10">
          <mxGeometry width="50" height="50" relative="1" as="geometry">
            <mxPoint x="300" y="390" as="sourcePoint" />
            <mxPoint x="350" y="340" as="targetPoint" />
          </mxGeometry>
        </mxCell>
        <mxCell id="1Tv3MUX7JbMBVBFQ-Npo-13" value="engine-api" style="edgeLabel;html=1;align=center;verticalAlign=middle;resizable=0;points=[];" vertex="1" connectable="0" parent="1Tv3MUX7JbMBVBFQ-Npo-12">
          <mxGeometry x="-0.1017" y="-1" relative="1" as="geometry">
            <mxPoint x="-1" y="-3" as="offset" />
          </mxGeometry>
        </mxCell>
        <mxCell id="1Tv3MUX7JbMBVBFQ-Npo-22" style="edgeStyle=orthogonalEdgeStyle;rounded=0;orthogonalLoop=1;jettySize=auto;html=1;exitX=0.5;exitY=0;exitDx=0;exitDy=0;entryX=0.5;entryY=1;entryDx=0;entryDy=0;" edge="1" parent="1" source="1Tv3MUX7JbMBVBFQ-Npo-15" target="1Tv3MUX7JbMBVBFQ-Npo-21">
          <mxGeometry relative="1" as="geometry" />
        </mxCell>
        <mxCell id="1Tv3MUX7JbMBVBFQ-Npo-15" value="op-batcher" style="whiteSpace=wrap;html=1;aspect=fixed;fillColor=#d5e8d4;strokeColor=#82b366;" vertex="1" parent="1">
          <mxGeometry x="320" y="260" width="80" height="80" as="geometry" />
        </mxCell>
        <mxCell id="1Tv3MUX7JbMBVBFQ-Npo-23" style="edgeStyle=orthogonalEdgeStyle;rounded=0;orthogonalLoop=1;jettySize=auto;html=1;entryX=0.5;entryY=1;entryDx=0;entryDy=0;" edge="1" parent="1" source="1Tv3MUX7JbMBVBFQ-Npo-16" target="1Tv3MUX7JbMBVBFQ-Npo-21">
          <mxGeometry relative="1" as="geometry" />
        </mxCell>
        <mxCell id="1Tv3MUX7JbMBVBFQ-Npo-27" value="l1-rpc" style="edgeLabel;html=1;align=center;verticalAlign=middle;resizable=0;points=[];" vertex="1" connectable="0" parent="1Tv3MUX7JbMBVBFQ-Npo-23">
          <mxGeometry x="0.6287" y="-1" relative="1" as="geometry">
            <mxPoint as="offset" />
          </mxGeometry>
        </mxCell>
        <mxCell id="1Tv3MUX7JbMBVBFQ-Npo-16" value="op-proposer" style="whiteSpace=wrap;html=1;aspect=fixed;fillColor=#ffe6cc;strokeColor=#d79b00;" vertex="1" parent="1">
          <mxGeometry x="410" y="260" width="80" height="80" as="geometry" />
        </mxCell>
        <mxCell id="1Tv3MUX7JbMBVBFQ-Npo-21" value="Ethereum (L1)" style="rounded=0;whiteSpace=wrap;html=1;fillColor=#dae8fc;strokeColor=#6c8ebf;" vertex="1" parent="1">
          <mxGeometry x="200" y="110" width="320" height="60" as="geometry" />
        </mxCell>
        <mxCell id="1Tv3MUX7JbMBVBFQ-Npo-24" value="Optimism (L2)" style="text;html=1;strokeColor=none;fillColor=none;align=center;verticalAlign=middle;whiteSpace=wrap;rounded=0;" vertex="1" parent="1">
          <mxGeometry x="315" y="480" width="90" height="30" as="geometry" />
        </mxCell>
        <mxCell id="1Tv3MUX7JbMBVBFQ-Npo-25" value="" style="endArrow=classic;html=1;rounded=0;entryX=0.5;entryY=0;entryDx=0;entryDy=0;" edge="1" parent="1" target="1Tv3MUX7JbMBVBFQ-Npo-10">
          <mxGeometry width="50" height="50" relative="1" as="geometry">
            <mxPoint x="320" y="170" as="sourcePoint" />
            <mxPoint x="350" y="340" as="targetPoint" />
            <Array as="points">
              <mxPoint x="320" y="180" />
              <mxPoint x="320" y="200" />
              <mxPoint x="270" y="200" />
            </Array>
          </mxGeometry>
        </mxCell>
        <mxCell id="1Tv3MUX7JbMBVBFQ-Npo-26" value="l1-rpc" style="edgeLabel;html=1;align=center;verticalAlign=middle;resizable=0;points=[];" vertex="1" connectable="0" parent="1Tv3MUX7JbMBVBFQ-Npo-25">
          <mxGeometry x="0.4478" relative="1" as="geometry">
            <mxPoint as="offset" />
          </mxGeometry>
        </mxCell>
        <mxCell id="1Tv3MUX7JbMBVBFQ-Npo-28" value="" style="endArrow=classic;html=1;rounded=0;exitX=0.5;exitY=1;exitDx=0;exitDy=0;entryX=1;entryY=0.5;entryDx=0;entryDy=0;" edge="1" parent="1" source="1Tv3MUX7JbMBVBFQ-Npo-15" target="1Tv3MUX7JbMBVBFQ-Npo-9">
          <mxGeometry width="50" height="50" relative="1" as="geometry">
            <mxPoint x="300" y="400" as="sourcePoint" />
            <mxPoint x="350" y="350" as="targetPoint" />
            <Array as="points">
              <mxPoint x="360" y="440" />
            </Array>
          </mxGeometry>
        </mxCell>
        <mxCell id="1Tv3MUX7JbMBVBFQ-Npo-29" value="" style="endArrow=classic;html=1;rounded=0;entryX=1;entryY=0.5;entryDx=0;entryDy=0;exitX=0.5;exitY=1;exitDx=0;exitDy=0;" edge="1" parent="1" source="1Tv3MUX7JbMBVBFQ-Npo-16" target="1Tv3MUX7JbMBVBFQ-Npo-9">
          <mxGeometry width="50" height="50" relative="1" as="geometry">
            <mxPoint x="300" y="400" as="sourcePoint" />
            <mxPoint x="350" y="350" as="targetPoint" />
            <Array as="points">
              <mxPoint x="450" y="440" />
            </Array>
          </mxGeometry>
        </mxCell>
        <mxCell id="1Tv3MUX7JbMBVBFQ-Npo-30" value="rollup-rpc" style="edgeLabel;html=1;align=center;verticalAlign=middle;resizable=0;points=[];" vertex="1" connectable="0" parent="1Tv3MUX7JbMBVBFQ-Npo-29">
          <mxGeometry x="0.2319" y="1" relative="1" as="geometry">
            <mxPoint x="-42" y="-1" as="offset" />
          </mxGeometry>
        </mxCell>
      </root>
    </mxGraphModel>
  </diagram>
</mxfile>
